<svg width="44" height="21" viewBox="0 0 44 21" fill="none" xmlns="http://www.w3.org/2000/svg">
<path d="M40.086 13.8295L40.0892 6.76538C40.0934 6.19681 39.844 5.66469 39.4314 5.34087C39.175 5.13883 38.8822 5.0367 38.5773 5.03997C38.3871 5.04028 38.2091 5.0794 38.0238 5.16014L31.713 7.97451C30.8556 5.04155 28.431 2.91548 25.5653 2.91741L17.9898 2.91598C15.1314 2.91236 12.7 5.03808 11.8403 7.96554L5.52473 5.14138C5.34902 5.05846 5.15875 5.02272 4.96851 5.02303C4.67095 5.02074 4.37353 5.12663 4.11769 5.32119C3.70103 5.63805 3.45537 6.17375 3.45853 6.73676L3.45531 13.8009C3.45115 14.3695 3.70059 14.9016 4.1083 15.2171C4.52089 15.5409 5.04291 15.6011 5.50361 15.3951L11.8218 12.5751C12.6792 15.5081 15.1037 17.6342 17.9695 17.6322L25.5449 17.6336C28.4034 17.6373 30.8348 15.5116 31.6944 12.5841L38.01 15.4083C38.4737 15.6211 39.0004 15.5453 39.4098 15.234C39.8264 14.9171 40.0648 14.387 40.0689 13.8184L40.086 13.8295ZM11.5126 9.18918L11.5108 9.63572L8.80353 9.63739C8.49377 9.63235 8.24048 9.92122 8.24094 10.2818C8.24139 10.6423 8.49052 10.922 8.80758 10.9215L11.5148 10.9198L11.513 11.3664L5.11432 14.2114C5.06557 14.2365 5.01434 14.2393 4.97532 14.2449C4.87289 14.2506 4.79479 14.1897 4.76061 14.1676C4.70935 14.1344 4.59699 14.0153 4.58941 13.8046L4.59265 6.74044C4.59727 6.53242 4.71174 6.4213 4.75803 6.37408C4.80919 6.33516 4.95054 6.25173 5.12137 6.32633L11.515 9.17532L11.5126 9.18918ZM30.9159 10.2889C30.9129 13.6476 28.5091 16.3779 25.5555 16.3745L17.9801 16.373C15.0265 16.3696 12.6256 13.6361 12.6286 10.2773C12.6317 6.91863 15.0355 4.18832 17.989 4.19179L25.5644 4.19322C28.518 4.19669 30.919 6.93021 30.9159 10.2889ZM38.9641 13.8286C38.9595 14.0366 38.845 14.1477 38.7938 14.1866C38.7426 14.2255 38.6013 14.309 38.4378 14.2288L32.0392 11.3715L32.0411 10.925L34.7483 10.9233C35.0581 10.9283 35.3114 10.6395 35.3109 10.2789C35.3104 9.91838 35.0613 9.63866 34.7443 9.63918L32.037 9.64085L32.0389 9.19431L38.4327 6.34097C38.6033 6.27136 38.7424 6.34601 38.7913 6.39308C38.8425 6.42628 38.9548 6.54536 38.9624 6.75613L38.9592 13.8203L38.9641 13.8286Z" fill="#7A4292"/>
</svg>
