<?xml version="1.0" encoding="UTF-8"?><svg id="a" xmlns="http://www.w3.org/2000/svg" width="559.8" height="306.81" xmlns:xlink="http://www.w3.org/1999/xlink" viewBox="0 0 559.8 306.81"><defs><linearGradient id="b" x1="-110.94" y1="255.06" x2="-94.51" y2="359.14" gradientTransform="translate(235.47 -181.35) rotate(1.97) skewX(-.96)" gradientUnits="userSpaceOnUse"><stop offset="0" stop-color="#fcd754"/><stop offset="1" stop-color="#ffad05"/></linearGradient><linearGradient id="c" x1="-50.45" y1="244.69" x2="-34.38" y2="346.46" xlink:href="#b"/><linearGradient id="d" x1="5.32" y1="233.65" x2="21.39" y2="335.42" xlink:href="#b"/><linearGradient id="e" x1="65.37" y1="221.28" x2="81.67" y2="324.52" xlink:href="#b"/><linearGradient id="f" x1="-166.19" y1="385.99" x2="-154.89" y2="457.54" xlink:href="#b"/><linearGradient id="g" x1="-114.73" y1="375.85" x2="-103.39" y2="447.71" xlink:href="#b"/><linearGradient id="h" x1="-66.43" y1="366.17" x2="-54.99" y2="438.63" xlink:href="#b"/><linearGradient id="i" x1="-16.2" y1="357.42" x2="-4.97" y2="428.52" xlink:href="#b"/><linearGradient id="j" x1="37.41" y1="347.02" x2="48.64" y2="418.13" xlink:href="#b"/><linearGradient id="k" x1="89.02" y1="336.48" x2="100.31" y2="408.02" xlink:href="#b"/><linearGradient id="l" x1="134.15" y1="327.26" x2="145.59" y2="399.71" xlink:href="#b"/><linearGradient id="m" x1="179.71" y1="318.42" x2="191.15" y2="390.87" xlink:href="#b"/><linearGradient id="n" x1="227.8" y1="309.55" x2="239.1" y2="381.1" xlink:href="#b"/><linearGradient id="o" x1="279.66" y1="299.33" x2="291.01" y2="371.21" xlink:href="#b"/></defs><path d="M545.42,101.51c-5.15-4.55-11.57-6.95-18.58-6.95-1.6,0-3.24,.13-4.87,.39l-12.52,1.98c-3.11,.49-6.06,1.42-8.78,2.76-1.38-.19-2.79-.29-4.22-.29-1.69,0-3.42,.14-5.14,.41l-12.42,1.97c-2.37,.38-4.68,1.02-6.89,1.93-.77-.06-1.54-.09-2.31-.09-1.59,0-3.21,.13-4.81,.38l-33.32,5.29c-3.14,.5-6.13,1.45-8.91,2.84-1.94-.25-4.07-.37-6.38-.37-5.62,0-10.89,.74-12.89,1.06-8.46,1.34-15.87,3.85-22.09,7.47-.95-.26-1.92-.48-2.88-.64l-.56-.1h-.04c-2.19-.34-4.67-.52-7.37-.52-5.61,0-10.89,.74-12.89,1.06-2.07,.33-4.1,.73-6.07,1.21l-12.67-35.38,16.54-38.58,.03-.06,.02-.06,.27-.67,.02-.06,.02-.06c4.03-10.5,2.49-21.65-4.12-29.82-5.37-6.63-13.46-10.42-22.19-10.42-1.62,0-3.26,.13-4.89,.39l-18.8,2.97c-4.44,.7-8.52,2.14-12.17,4.28-2.29-.55-4.67-.83-7.1-.83-1.71,0-3.45,.14-5.19,.41l-18.35,2.9c-3.69,.58-7.15,1.74-10.33,3.44-1.84-.34-3.73-.52-5.64-.52-1.69,0-3.41,.14-5.12,.4l-18.35,2.9c-8.69,1.37-16.05,5.96-20.83,12.63-5.07-3.99-11.27-6.09-18.02-6.09-1.71,0-3.45,.14-5.19,.41l-18.35,2.9c-4.52,.71-8.79,2.34-12.53,4.75-.59-.13-1.18-.25-1.76-.36-2.72-.47-5.92-.71-9.53-.71-5.13,0-11.24,.5-16.78,1.38-34.99,5.53-54.39,26.06-56.1,59.4-.7,13.64,2.04,25.39,8.14,35.02-6.21,5.28-9.99,12.9-10.43,21.47l-.75,14.66-26.15,4.15c-14.49,2.29-24.55,13.65-25.05,28.26l-2.33,67.86c-.3,8.82,3.02,16.77,9.36,22.38,5.14,4.55,11.57,6.95,18.58,6.95,1.61,0,3.24-.13,4.86-.39l33.75-5.35c2.29-.36,4.52-.98,6.67-1.84,.7,.05,1.37,.08,2.03,.08,1.6,0,3.24-.13,4.87-.39l12.73-2.02c3.08-.49,5.99-1.4,8.7-2.71,1.36,.19,2.74,.28,4.13,.28,1.65,0,3.34-.13,5-.4l13.05-2.07c2.27-.36,4.5-1,6.66-1.89,1.19,.07,2.41,.11,3.66,.11,4.39,0,9.4-.39,13.73-1.08,8.01-1.27,15.13-3.61,21.22-6.96,2.48,.7,5.05,1.05,7.68,1.05,1.6,0,3.24-.13,4.87-.39l12.72-2.02c8.04-1.27,14.87-5.46,19.35-11.57,4.8,3.58,10.54,5.46,16.75,5.46,1.61,0,3.25-.13,4.86-.39l12.74-2.02c2.72-.43,5.32-1.2,7.77-2.28,1.01,.1,2.02,.15,3.05,.15,1.77,0,3.59-.15,5.4-.43l11.91-1.89h0l.52-.08c2.12-.34,4.23-.92,6.29-1.73,.61,.04,1.2,.06,1.78,.06,1.6,0,3.24-.13,4.87-.39l33.75-5.35c2.74-.44,5.36-1.21,7.82-2.31,1.48,.12,3.06,.17,4.72,.17,4.39,0,9.39-.39,13.73-1.08,8.21-1.3,15.49-3.73,21.67-7.21,.64,.15,1.28,.28,1.92,.4,2.39,.42,5.25,.63,8.51,.63,4.39,0,9.39-.39,13.72-1.08,8.01-1.27,15.13-3.61,21.22-6.96,2.48,.7,5.06,1.05,7.68,1.05,1.6,0,3.24-.13,4.87-.39l33.73-5.35c2.29-.36,4.54-.98,6.69-1.85,.7,.05,1.37,.08,2.03,.08,1.6,0,3.24-.13,4.87-.39l12.51-1.98c3.11-.49,6.06-1.42,8.79-2.75,1.38,.19,2.78,.29,4.2,.29,1.7,0,3.44-.14,5.17-.42l12.4-1.97c14.47-2.29,24.54-13.65,25.04-28.26l2.33-67.87c.31-8.82-3.02-16.77-9.36-22.38Zm-6.11,3.58c.59,.42,1.17,.87,1.73,1.36-.56-.49-1.14-.94-1.73-1.36Zm7.21,9.02c-.49-1.19-1.12-2.31-1.82-3.38,.7,1.07,1.33,2.19,1.82,3.38Zm-7.78-9.4c-.42-.28-.85-.55-1.28-.79,.44,.25,.86,.51,1.28,.79Zm-1.97-1.16c-.44-.23-.88-.43-1.33-.63,.45,.19,.89,.4,1.33,.63Zm-2-.91c-.56-.22-1.14-.41-1.72-.58,.58,.17,1.16,.36,1.72,.58Zm-2.06-.69c-.7-.19-1.41-.34-2.13-.46,.72,.12,1.43,.27,2.13,.46Zm-2.77-.55c-.52-.07-1.05-.13-1.59-.17,.53,.04,1.06,.09,1.59,.17Zm-2.38-.2c-.52-.02-1.05-.01-1.58,0,.29-.01,.58-.03,.87-.03,.24,0,.47,.02,.71,.03Zm-4.54,.28c.77-.12,1.53-.2,2.28-.24-.75,.05-1.51,.12-2.28,.24l-4.17,.66,4.17-.66Zm-21.23,5.13h0s0,0,0,0c0,0,0,0,0,0Zm-2.44-.42c-.27-.03-.54-.04-.81-.06,.27,.02,.55,.03,.81,.06Zm-2.54-.16c-.47,0-.95,0-1.43,.03,.36-.02,.73-.04,1.09-.04,.11,0,.22,.02,.34,.02Zm-2.15,.05c-.75,.05-1.51,.13-2.27,.25,.77-.12,1.52-.2,2.27-.25Zm-21.57,4.39h0c-.56-.08-1.13-.14-1.71-.19,.57,.04,1.14,.1,1.71,.19Zm-2.27-.21c-.39-.02-.78-.04-1.17-.04,.02,0,.05,0,.07,0,.37,0,.73,.02,1.1,.04Zm-38.19,5.55l33.32-5.29s0,0,0,0c0,0,0,0,0,0l-33.32,5.29c-.81,.13-1.61,.3-2.38,.5,.77-.2,1.57-.37,2.38-.5Zm35.8-5.53c-.21,.01-.41,.01-.62,.03,.21-.02,.41-.02,.62-.03Zm-44.58,8.75h0c-.24-.05-.46-.11-.71-.15,0,0,0,0,0,0,0,0,0,0,0,0,.24,.04,.47,.1,.71,.15Zm-7.38-.66c-.06,0-.12,0-.19,0,0,0,.02,0,.03,0,.05,0,.11,0,.16,0Zm5.15,.29c-.16-.02-.33-.04-.49-.05,.16,.02,.33,.03,.49,.05Zm-1.58-.15c-.19-.01-.38-.03-.56-.04,.19,.01,.38,.03,.56,.04Zm-1.66-.1c-.17,0-.34-.02-.51-.02,.17,0,.34,.01,.51,.02Zm-13.93,.93s0,0,0,0c-.18,.03-.35,.07-.53,.1,.18-.03,.35-.07,.53-.1,0,0,0,0,0,0Zm10.1-.95c-.16,0-.31,.01-.47,.02,.16,0,.31-.01,.47-.02Zm-1.75,.07c-.14,0-.29,.01-.43,.02,.14,0,.29-.02,.43-.02Zm-2,.13c-.08,0-.16,.01-.24,.02,.08,0,.16-.01,.24-.02Zm-1.5,.13c-.13,.01-.27,.03-.4,.04,.13-.01,.26-.03,.4-.04Zm-1.51,.16c-.07,0-.15,.02-.22,.02,.07,0,.14-.02,.22-.02Zm-1.38,.17c-.09,.01-.17,.02-.26,.04,.09-.01,.17-.02,.26-.04Zm-1.01,.14c-.09,.01-.18,.03-.26,.04,.08-.01,.17-.02,.26-.04Zm-23.2,8.33h0c-1.02-.4-2.1-.72-3.22-.99,1.11,.27,2.19,.59,3.22,.99Zm-11.57-1.89c-.07,0-.13,0-.2,0,0,0,.02,0,.03,0,.06,0,.11,0,.17,0Zm6.66,.51h0s0,0,0,0c0,0,0,0,0,0Zm-1.52-.22c-.16-.02-.33-.04-.49-.05,.17,.02,.33,.03,.49,.05Zm-1.58-.15c-.19-.01-.37-.03-.56-.04,.19,.01,.37,.03,.56,.04Zm-1.65-.1c-.17,0-.34-.02-.52-.02,.17,0,.34,.01,.52,.02Zm-3.82-.02c-.16,0-.32,.01-.49,.02,.16,0,.32-.01,.49-.02Zm-1.76,.07c-.14,0-.29,.01-.43,.02,.14,0,.29-.02,.43-.02Zm-1.99,.13c-.09,0-.18,.02-.26,.02,.09,0,.17-.02,.26-.02Zm-1.5,.13c-.14,.01-.28,.03-.42,.04,.14-.01,.27-.03,.42-.04Zm-1.52,.16c-.07,0-.15,.02-.22,.02,.07,0,.15-.02,.22-.02Zm-1.39,.17c-.09,.01-.16,.02-.25,.03,.08-.01,.16-.02,.25-.03Zm-1.02,.14c-.08,.01-.15,.02-.22,.03,.07-.01,.15-.02,.22-.03Zm-12.49,3.01s0,0,0,0c-.1-.53-.2-1.06-.33-1.58,.13,.53,.23,1.05,.33,1.58Zm2.25-84.75l-11.18,26.07,11.18-26.07,.27-.67-.27,.67Zm1.52-14.82c.12,.58,.23,1.17,.31,1.77-.08-.6-.19-1.18-.31-1.77Zm-2.61-6.67c.51,.86,.97,1.75,1.36,2.67-.39-.92-.84-1.81-1.36-2.67-.51-.86-1.09-1.69-1.73-2.47h0s0,0,0,0c.64,.79,1.22,1.62,1.73,2.47Zm-3.22-4.11c-.09-.09-.18-.19-.27-.28,.09,.09,.18,.18,.27,.28Zm-13.19-6.21c.11,.01,.22,.03,.34,.04-.11-.01-.22-.03-.34-.04Zm2.39,.38c.06,.01,.13,.02,.19,.04-.06-.01-.13-.02-.19-.04Zm2.26,.61c.13,.04,.26,.09,.4,.13-.13-.05-.26-.09-.4-.13Zm2.34,.91c.11,.05,.22,.11,.32,.16-.11-.05-.22-.11-.32-.16Zm2.17,1.15s.06,.03,.09,.05c-.03-.02-.06-.03-.09-.05Zm1.86,1.27c.11,.08,.21,.16,.32,.24-.1-.08-.21-.16-.32-.24Zm-13.18-4.42c-.17,0-.35,0-.52,0,.1,0,.21-.01,.31-.01,.07,0,.14,.01,.21,.01Zm-26.22,3.99c1.09-.3,2.21-.54,3.36-.73l18.81-2.97-18.81,2.97c-1.15,.18-2.27,.42-3.36,.73-1.09,.3-2.14,.66-3.15,1.08,1.02-.42,2.07-.77,3.15-1.08Zm24.47-3.94c-.18,.01-.36,.02-.54,.04,.18-.02,.36-.02,.54-.04Zm-29.12,5.68c-.98,.47-1.92,1-2.83,1.58,.9-.58,1.85-1.11,2.83-1.58Zm-9.05,231.56c-1.09,.5-2.22,.93-3.39,1.27,1.17-.35,2.3-.77,3.39-1.27h0Zm3.15-229.63c-.17-.05-.34-.09-.52-.13,.17,.04,.34,.09,.52,.13Zm-1.88-.44c-.17-.03-.33-.07-.5-.1,.17,.03,.34,.06,.5,.1Zm-2.36-.34c-.08,0-.15,0-.23-.01,.08,0,.15,0,.23,.01Zm-1.91-.08c-.2,0-.4,0-.6,0,.11,0,.23-.01,.34-.01,.09,0,.17,0,.25,.01Zm-2.51,.09c.19-.02,.38-.03,.57-.04-.19,.01-.38,.02-.57,.04Zm-20.25,3.12l6.12-.97-6.12,.97c-.96,.15-1.89,.35-2.8,.6,.91-.25,1.85-.44,2.8-.6Zm-1.32,231.2c-.05,0-.11-.01-.16-.02h0c.05,0,.11,.01,.16,.02Zm-8.95-227.24c.47-.31,.97-.58,1.46-.86-.49,.28-.99,.55-1.46,.86-.75-.22-1.52-.39-2.29-.53,.78,.14,1.54,.31,2.29,.53Zm-5.5-.91c-.68-.03-1.38-.03-2.08,0,.28,0,.57-.03,.85-.03,.41,0,.82,.02,1.23,.04Zm2.69,.28c-.77-.13-1.55-.22-2.34-.27,.79,.05,1.57,.15,2.34,.27Zm-5.48-.26c-.84,.05-1.68,.13-2.53,.26,.85-.13,1.69-.21,2.53-.26Zm-37.38,13.15c-1.02,1.43-1.89,2.97-2.59,4.62-.47,1.1-.86,2.24-1.17,3.42h0c.31-1.18,.7-2.32,1.17-3.42,.7-1.65,1.57-3.19,2.59-4.62Zm-4.22,7.25c-1.1-1.83-2.45-3.51-4.07-4.98-.58-.52-1.2-1-1.82-1.46,.63,.45,1.24,.93,1.82,1.46,1.63,1.46,2.98,3.14,4.07,4.98Zm-6.5-6.84c-.44-.3-.9-.58-1.36-.85,.46,.26,.92,.55,1.36,.85Zm-2.08-1.24c-.47-.24-.94-.46-1.42-.67,.48,.21,.96,.43,1.42,.67Zm-2.12-.97c-.62-.24-1.25-.45-1.89-.64,.64,.19,1.27,.4,1.89,.64Zm-2.19-.74c-.75-.2-1.51-.36-2.28-.49,.77,.13,1.54,.29,2.28,.49Zm-2.97-.58c-.56-.08-1.12-.14-1.69-.17,.57,.04,1.13,.1,1.69,.17Zm-2.54-.21c-.56-.02-1.13-.01-1.7,0,.32-.01,.65-.04,.96-.04,.25,0,.49,.02,.74,.03Zm-23.24,3.2l18.35-2.9c.83-.13,1.65-.21,2.46-.26-.81,.05-1.63,.13-2.46,.26l-18.35,2.9c-1.77,.28-3.47,.73-5.07,1.32,1.6-.59,3.3-1.04,5.07-1.32Zm-12.26,5.44h0c.42-.35,.85-.68,1.3-1-.45,.32-.88,.65-1.3,1Zm-10.1-1.63c-.91-.03-1.83-.05-2.77-.04,.09,0,.19,0,.28,0,.84,0,1.67,.02,2.49,.05Zm5.89,.56c-.78-.13-1.6-.24-2.45-.32,.85,.09,1.67,.19,2.45,.32Zm-3.18-.39c-.68-.06-1.38-.11-2.1-.14,.72,.03,1.41,.08,2.1,.14Zm-20.95,1.08c.79-.12,1.62-.24,2.47-.36-.85,.11-1.69,.23-2.47,.36-6,.95-11.47,2.35-16.41,4.19,4.94-1.85,10.41-3.25,16.41-4.19Zm14.95-1.29c-.82,0-1.65,.03-2.47,.06,.83-.03,1.65-.05,2.47-.06Zm-3.01,.08c-.93,.04-1.86,.1-2.78,.16,.92-.07,1.85-.12,2.78-.16Zm-3.4,.21c-.84,.07-1.68,.14-2.49,.22,.82-.08,1.65-.16,2.49-.22Zm-2.84,.25c-.9,.09-1.78,.2-2.64,.31,.86-.11,1.73-.21,2.64-.31Zm-47.21,240.04c.34,.05,.67,.08,1.01,.11-.34-.03-.68-.06-1.01-.11h0Zm-12.07-114.92l.38-7.34-.38,7.34c-.05,.91-.05,1.81-.01,2.68-.04-.88-.03-1.77,.01-2.68Zm-41.58,14.23c-5.13,3.56-8.55,9.1-9.41,15.67,.85-6.57,4.27-12.11,9.41-15.67Zm4.65-2.48c-1.24,.49-2.42,1.08-3.53,1.75,1.11-.68,2.29-1.26,3.53-1.75Zm-16.59,88.4c-.06,1.7,.06,3.36,.34,4.96-.28-1.6-.39-3.26-.34-4.96Zm21.34,22.5c.31,0,.63-.03,.95-.04-.32,.01-.64,.04-.95,.04h0Zm32.96-4.93l4.62-.73c.3-.05,.59-.12,.88-.17-.29,.06-.58,.13-.88,.17l-4.62,.73Zm14.36-2.58c1.26,0,2.54-.1,3.83-.31-1.29,.21-2.58,.31-3.83,.31Zm23.22-4.36c-2.04,.97-4.27,1.66-6.66,2.04,2.39-.38,4.62-1.07,6.66-2.04,.68-.32,1.34-.68,1.97-1.06,0,0,0,0,.01,0,0,0,0,0-.01,0-.64,.38-1.29,.73-1.97,1.06Zm4.38-.65c.26,.03,.54,.04,.8,.06-.27-.02-.54-.03-.8-.06Zm2.49,.16c.46,0,.92,0,1.39-.02-.35,.02-.71,.04-1.06,.04-.11,0-.22-.02-.33-.02Zm4.29-.3c-.74,.12-1.47,.19-2.2,.25,.73-.05,1.46-.13,2.2-.25Zm13.06-2.07l-3.58,.57,3.58-.57c2.3-.37,4.49-1.09,6.51-2.08h0c-2.03,1-4.21,1.72-6.51,2.08Zm33.37-5c1.9-.58,3.68-1.24,5.35-1.95-1.68,.71-3.46,1.37-5.35,1.95Zm20.62-3.86c-2.97,0-5.8-.58-8.42-1.68h0c2.62,1.1,5.45,1.68,8.42,1.68,1.26,0,2.54-.1,3.83-.31-1.29,.21-2.57,.31-3.83,.31Zm31.82-11.55c1.56-2.2,2.73-4.7,3.44-7.43h0c-.71,2.73-1.88,5.23-3.44,7.43Zm16.06,2.28c-3.1-.84-5.95-2.37-8.4-4.53-.85-.76-1.63-1.57-2.34-2.44-.46-.57-.88-1.17-1.28-1.78,.4,.61,.82,1.21,1.28,1.78,.7,.87,1.48,1.68,2.34,2.44,2.45,2.17,5.3,3.7,8.4,4.53,1.24,.34,2.52,.56,3.82,.67-1.31-.11-2.59-.34-3.82-.67Zm22.38-1.57l-8.49,1.35,8.49-1.35c1.4-.22,2.74-.55,4.03-.98-1.28,.43-2.63,.76-4.03,.98Zm9.73-2.31c.28,.02,.57,.02,.85,.04-.28-.01-.57-.01-.85-.04Zm2.11,.09c.51,0,1.03-.03,1.54-.06-.51,.03-1.03,.06-1.53,.06,0,0,0,0,0,0Zm3.94-.3c-.6,.08-1.19,.16-1.77,.21,.58-.05,1.18-.13,1.77-.21Zm59.55-9.43l-33.75,5.35,33.75-5.35c.69-.11,1.38-.25,2.04-.41-.67,.16-1.35,.3-2.04,.41Zm7.64-2.55c-.3,.16-.61,.3-.92,.44,.31-.15,.62-.28,.92-.44,1.79,.22,3.78,.32,5.86,.32-2.07,0-4.07-.1-5.86-.32Zm5.93,.33h0c.54,0,1.09,0,1.64-.02-.55,.01-1.1,.02-1.64,.02Zm3.3-.07c1.11-.05,2.21-.12,3.3-.21-1.09,.09-2.19,.16-3.3,.21Zm9.39-.93c-1.33,.21-2.8,.4-4.33,.56,1.53-.16,3-.34,4.33-.56,3.43-.54,6.57-1.28,9.44-2.17-2.88,.89-6.02,1.63-9.44,2.17Zm21.76-7.83h0c-1.38,.89-2.86,1.74-4.45,2.53,1.58-.79,3.06-1.64,4.45-2.53Zm4,1.03c-.93-.16-1.83-.39-2.7-.64,.88,.25,1.77,.48,2.7,.64,.54,.09,1.1,.17,1.68,.24-.58-.07-1.14-.15-1.68-.24Zm7.38,.53h0c.54,0,1.09,0,1.64-.02-.55,.01-1.1,.02-1.64,.02Zm6.48-.27c-1.05,.08-2.11,.15-3.18,.2,1.07-.05,2.13-.11,3.18-.2Zm6.21-.73c-1.28,.2-2.68,.38-4.14,.54,1.46-.15,2.86-.33,4.14-.54,.88-.14,1.72-.3,2.56-.46-.84,.16-1.68,.32-2.56,.46Zm21.52-7.67c-2.75,1.75-5.87,3.31-9.44,4.61,3.57-1.3,6.7-2.86,9.44-4.61,.65,.27,1.32,.52,2,.73-.68-.21-1.35-.45-2-.73Zm-17.52,6.91c1.57-.34,3.06-.72,4.5-1.14-1.44,.42-2.93,.8-4.5,1.14Zm63.51-10.89l-33.73,5.35c-1.29,.21-2.58,.31-3.83,.31,1.26,0,2.54-.1,3.83-.31l33.73-5.35c1.98-.31,3.84-.87,5.59-1.6-1.75,.73-3.61,1.29-5.59,1.6Zm8.21-1.91c.51,.04,1.03,.06,1.55,.06,.95,0,1.9-.08,2.87-.19-.97,.12-1.92,.19-2.87,.19-.52,0-1.04-.02-1.55-.06Zm17.89-2.23l-5.72,.91,5.72-.91c.8-.13,1.59-.29,2.36-.49,2.3-.59,4.44-1.49,6.36-2.66h0c-1.92,1.17-4.05,2.07-6.36,2.66-.77,.2-1.55,.36-2.36,.49Zm11.15-2.73c.27,.03,.55,.04,.82,.06-.27-.02-.55-.03-.82-.06Zm2.54,.16c.48,0,.96,0,1.44-.03-.37,.02-.74,.05-1.11,.05-.11,0-.22-.02-.33-.02Zm2.17-.06c.76-.05,1.52-.14,2.3-.26-.77,.12-1.54,.2-2.3,.26Z" fill="#fff"/><path d="M21.56,285.69c3.92,3.47,8.87,5.29,14.21,5.29,1.26,0,2.54-.1,3.83-.31l33.75-5.35c2.39-.38,4.62-1.1,6.67-2.07,1.01,.14,2.03,.23,3.07,.23,1.26,0,2.54-.1,3.83-.31l12.73-2.02c3.18-.5,6.09-1.57,8.63-3.09,2.9,.66,6,.77,9.2,.27l13.05-2.07c2.3-.37,4.49-1.09,6.51-2.08,1.52,.14,3.15,.21,4.84,.21,4.35,0,9.02-.42,12.7-1,9-1.43,16.03-4.17,21.52-7.67,2.62,1.1,5.45,1.68,8.42,1.68,1.26,0,2.54-.1,3.83-.31l12.72-2.02c9.43-1.49,16.44-7.93,18.7-16.66,1.11,1.92,2.52,3.67,4.22,5.18,3.92,3.47,8.87,5.29,14.21,5.29,1.26,0,2.54-.1,3.83-.31l12.74-2.02c2.8-.44,5.38-1.32,7.69-2.57,2.67,.46,5.53,.47,8.53,0l12.42-1.97h0c2.23-.35,4.33-1.03,6.29-1.94,.92,.12,1.86,.19,2.81,.19,1.26,0,2.54-.1,3.83-.31l33.75-5.35c2.78-.44,5.34-1.32,7.64-2.55,1.81,.22,3.83,.33,5.93,.33,4.35,0,9.02-.42,12.7-1,9.14-1.45,16.24-4.25,21.76-7.83,1.27,.44,2.6,.79,4,1.03,2.14,.37,4.7,.53,7.38,.53,4.35,0,9.02-.42,12.69-1,9.01-1.43,16.03-4.17,21.52-7.67,2.62,1.1,5.45,1.68,8.42,1.68,1.26,0,2.54-.1,3.83-.31l33.73-5.35c2.4-.38,4.64-1.1,6.69-2.08,1.01,.14,2.03,.23,3.07,.23,1.26,0,2.54-.1,3.83-.31l12.51-1.98c3.22-.51,6.15-1.59,8.72-3.15,2.93,.69,6.11,.8,9.44,.27l12.41-1.97c11.26-1.78,19.09-10.61,19.48-21.97l2.33-67.87c.24-6.81-2.3-12.93-7.14-17.21-4.85-4.29-11.25-6.06-18.03-4.99l-12.52,1.98c-3.21,.51-6.15,1.6-8.71,3.15-2.93-.68-6.11-.8-9.42-.27l-12.42,1.97c-2.47,.39-4.77,1.14-6.86,2.17-2.3-.34-4.69-.33-7.14,.05l-33.32,5.29c-3.25,.52-6.2,1.63-8.78,3.22-.24-.05-.46-.11-.71-.15-6.97-1.21-16.07,.04-18.7,.46-9.41,1.49-16.66,4.4-22.24,8.18-1.53-.6-3.16-1.07-4.9-1.38h0c-6.97-1.22-16.07,.05-18.69,.46-4.28,.68-8.11,1.66-11.55,2.87-.19-1.06-.43-2.11-.77-3.15l-14.55-40.62,17.56-40.97,.27-.67c3.18-8.28,2.02-16.99-3.09-23.3-4.94-6.09-12.75-8.97-20.9-7.67l-18.81,2.97c-4.61,.73-8.7,2.42-12.16,4.96-3.75-1.4-7.94-1.79-12.3-1.1l-18.35,2.9c-3.83,.61-7.3,1.98-10.28,3.96-3.36-.99-7.02-1.22-10.82-.63l-18.34,2.9c-10.16,1.61-17.78,8.59-20.26,18.02-1.17-2.15-2.68-4.09-4.54-5.76-5.09-4.58-11.92-6.46-19.24-5.3l-18.34,2.9c-4.73,.75-8.89,2.67-12.26,5.44-1.33-.44-2.73-.81-4.2-1.07-6.95-1.21-17.03-.44-24.14,.69-31.99,5.05-48.99,22.96-50.54,53.22-.9,17.53,4.55,28.94,11.01,36.36-7.69,3.68-12.83,11.03-13.3,20.13l-.75,14.67c-.09,1.83,0,3.58,.21,5.25l-31.92,5.06c-11.27,1.78-19.1,10.62-19.48,21.97l-2.33,67.87c-.23,6.81,2.3,12.93,7.14,17.21Z" fill="#6d4893"/><g><path d="M129.15,107.7c-5.44-3.34-10.89-6.54-10.59-12.44,.24-4.69,2.93-6.92,10.58-8.12,3.36-.53,7.16-.53,10.5-.61,3.64-.13,5.98-1.4,6.16-4.73l.75-14.68c.19-3.78-.98-4.65-4.13-5.2-3.61-.63-10.9-.38-17.93,.73-23.54,3.72-33.5,14.6-34.57,35.48-.95,18.61,7.03,25.6,17.09,30.62,9.46,4.81,11.29,7.67,11.08,11.61-.26,4.99-4.19,7.71-11.37,8.85-5.04,.8-9.59,.77-12.93,.69-3.64-.03-5.98,1.4-6.16,4.72l-.75,14.68c-.19,3.78,.98,4.65,4.13,5.2,3.61,.63,12.41,.44,19.9-.74,23.55-3.72,34.75-15.24,35.84-36.42,.74-14.52-4.8-21.75-17.59-29.64Z" fill="url(#b)"/><path d="M159.59,164.72l43.12-6.81c3.21-.51,4.98-2.44,5.14-5.61l.81-15.74c.16-3.18-1.43-4.57-4.64-4.07l-19.88,3.14,3.94-76.86c.16-3.18-1.43-4.58-4.64-4.07l-18.35,2.9c-3.21,.51-4.98,2.44-5.14,5.62l-4.99,97.43c-.16,3.18,1.43,4.58,4.64,4.07Z" fill="url(#c)"/><path d="M221.98,154.87l18.35-2.9c3.21-.51,4.98-2.44,5.14-5.61l4.99-97.44c.16-3.18-1.43-4.58-4.65-4.07l-18.34,2.9c-3.21,.51-4.98,2.44-5.14,5.62l-4.99,97.43c-.16,3.18,1.43,4.58,4.64,4.07Z" fill="url(#d)"/><path d="M261.42,148.64l18.35-2.9c3.21-.51,4.98-2.44,5.14-5.61l1.81-35.25,12.4,33.31c.92,2.7,2.67,4.08,6.34,3.5l18.8-2.97c3.67-.58,4.89-3.78,3.98-6.63l-16.85-47.01,20.5-47.81c1.23-3.19,.31-6.05-3.36-5.47l-18.81,2.97c-3.67,.58-5.59,2.53-6.81,5.58l-14.59,33.07,1.57-30.71c.16-3.18-1.43-4.58-4.64-4.07l-18.35,2.9c-3.21,.51-4.98,2.44-5.14,5.61l-4.99,97.44c-.16,3.18,1.43,4.58,4.64,4.07Z" fill="url(#e)"/><path d="M69.32,248.86l-17.67,2.79,.59-11.48,15.97-2.52c2.24-.35,3.47-1.7,3.58-3.91l.55-10.74c.11-2.21-1-3.19-3.23-2.83l-15.97,2.52,.52-10.22,17.25-2.72c2.23-.35,3.47-1.7,3.58-3.91l.56-10.95c.11-2.21-1-3.19-3.23-2.83l-33.43,5.28c-2.24,.35-3.47,1.7-3.58,3.91l-3.47,67.83c-.11,2.21,1,3.19,3.24,2.83l33.85-5.35c2.24-.35,3.47-1.7,3.58-3.91l.56-10.95c.11-2.21-1-3.19-3.24-2.83Z" fill="url(#f)"/><path d="M116.82,220.15l14.27-33.28c.85-2.22,.22-4.21-2.34-3.81l-13.09,2.07c-2.56,.4-3.89,1.76-4.74,3.88l-10.15,23.02,1.1-21.38c.11-2.21-1-3.19-3.23-2.83l-12.78,2.02c-2.24,.35-3.47,1.7-3.58,3.91l-3.47,67.83c-.11,2.21,1,3.19,3.23,2.83l12.78-2.02c2.24-.35,3.47-1.7,3.58-3.91l1.26-24.54,8.63,23.19c.64,1.88,1.86,2.84,4.41,2.44l13.09-2.07c2.55-.4,3.41-2.63,2.77-4.61l-11.73-32.73Z" fill="url(#g)"/><path d="M162.6,208.63c-3.79-2.33-7.58-4.55-7.37-8.66,.17-3.26,2.04-4.81,7.36-5.65,2.34-.37,4.98-.37,7.31-.42,2.54-.09,4.17-.97,4.28-3.29l.52-10.22c.13-2.63-.68-3.24-2.88-3.62-2.51-.44-7.59-.26-12.48,.51-16.39,2.59-23.33,10.16-24.07,24.7-.66,12.95,4.9,17.82,11.9,21.31,6.59,3.35,7.86,5.34,7.72,8.08-.18,3.48-2.91,5.37-7.92,6.16-3.51,.55-6.68,.53-9,.48-2.53-.02-4.17,.97-4.29,3.29l-.52,10.22c-.13,2.63,.68,3.24,2.88,3.62,2.51,.44,8.64,.31,13.86-.52,16.39-2.59,24.2-10.61,24.95-25.36,.52-10.11-3.34-15.14-12.25-20.63Z" fill="url(#h)"/><path d="M206.35,170.8l-18.73,2.96c-2.24,.35-3.47,1.7-3.58,3.91l-3.47,67.83c-.11,2.21,1,3.19,3.23,2.83l12.77-2.02c2.24-.35,3.47-1.7,3.58-3.91l.86-16.85,2.56-.4c19.05-3.01,25.46-10.6,26.5-30.93,1.06-20.75-4.45-26.46-23.72-23.42Zm-2.75,37.21l-1.7,.27,.99-19.38,1.7-.27c5.11-.81,5.98,.83,5.57,8.73-.4,7.9-1.46,9.84-6.56,10.65Z" fill="url(#i)"/><path d="M274.17,209.19v-.1c6.59-4.8,9.62-12.49,10.25-24.71,.99-19.27-4.73-25.16-24-22.12l-18.95,2.99c-2.24,.35-3.47,1.7-3.58,3.91l-3.47,67.83c-.11,2.21,1,3.18,3.23,2.83l12.77-2.02c2.24-.35,3.47-1.7,3.58-3.91l.95-18.54,7.23,17.66c.84,2.06,1.76,2.65,4.53,2.21l12.46-1.97c2.87-.46,3.83-2.7,2.89-4.85l-7.88-19.23Zm-16.42-11.2l-1.92,.3,.92-17.91,1.92-.3c5.11-.81,6.17,1.12,5.82,7.96-.35,6.85-1.63,9.14-6.74,9.95Z" fill="url(#j)"/><path d="M326.91,208.18l-17.67,2.79,.59-11.48,15.97-2.52c2.23-.35,3.47-1.7,3.58-3.91l.55-10.74c.11-2.21-1-3.19-3.23-2.83l-15.97,2.52,.52-10.22,17.25-2.73c2.24-.35,3.47-1.7,3.58-3.91l.56-10.95c.11-2.21-1-3.19-3.23-2.83l-33.43,5.28c-2.24,.35-3.47,1.7-3.58,3.91l-3.47,67.83c-.11,2.21,1,3.19,3.23,2.83l33.85-5.35c2.24-.35,3.47-1.7,3.58-3.91l.56-10.95c.11-2.21-1-3.19-3.23-2.83Z" fill="url(#k)"/><path d="M365.06,176.66c-3.79-2.33-7.58-4.55-7.37-8.66,.17-3.26,2.04-4.81,7.36-5.65,2.34-.37,4.98-.37,7.31-.42,2.54-.09,4.17-.97,4.29-3.29l.52-10.22c.13-2.63-.68-3.24-2.88-3.62-2.51-.44-7.59-.26-12.49,.51-16.39,2.59-23.33,10.16-24.07,24.7-.66,12.95,4.89,17.82,11.89,21.31,6.59,3.35,7.86,5.34,7.72,8.08-.18,3.48-2.91,5.37-7.92,6.16-3.51,.55-6.68,.53-9,.48-2.53-.02-4.17,.97-4.29,3.29l-.52,10.22c-.13,2.63,.68,3.24,2.88,3.62,2.51,.44,8.64,.31,13.86-.52,16.39-2.59,24.2-10.61,24.95-25.36,.52-10.11-3.34-15.14-12.25-20.63Z" fill="url(#l)"/><path d="M411.04,169.39c-3.79-2.33-7.58-4.55-7.37-8.66,.17-3.27,2.04-4.82,7.36-5.66,2.34-.37,4.98-.37,7.31-.42,2.54-.09,4.17-.97,4.28-3.29l.52-10.22c.13-2.63-.68-3.24-2.88-3.62-2.51-.44-7.59-.26-12.48,.51-16.39,2.59-23.33,10.16-24.07,24.7-.66,12.95,4.89,17.82,11.9,21.31,6.59,3.35,7.85,5.34,7.71,8.08-.18,3.48-2.91,5.37-7.92,6.16-3.51,.55-6.68,.53-9,.48-2.53-.02-4.17,.97-4.29,3.29l-.52,10.22c-.13,2.63,.68,3.24,2.88,3.62,2.51,.44,8.64,.31,13.86-.52,16.39-2.59,24.2-10.61,24.95-25.36,.52-10.11-3.34-15.14-12.25-20.63Z" fill="url(#m)"/><path d="M466.99,186.05l-17.67,2.79,.59-11.48,15.96-2.52c2.24-.35,3.47-1.7,3.58-3.91l.55-10.74c.11-2.21-1-3.19-3.24-2.83l-15.96,2.52,.52-10.22,17.24-2.72c2.24-.35,3.47-1.7,3.58-3.91l.56-10.95c.11-2.21-1-3.19-3.23-2.83l-33.43,5.28c-2.24,.35-3.47,1.7-3.58,3.91l-3.47,67.83c-.11,2.21,1,3.19,3.23,2.83l33.85-5.35c2.23-.35,3.47-1.7,3.58-3.91l.56-10.95c.11-2.21-1-3.19-3.23-2.83Z" fill="url(#n)"/><path d="M526.74,120.19l-12.56,1.98c-2.24,.35-3.47,1.7-3.58,3.91l-1.51,29.38-9.11-28.23c-.64-1.99-1.56-2.57-4.01-2.19l-12.45,1.97c-2.24,.35-3.47,1.7-3.58,3.91l-3.47,67.83c-.11,2.21,1,3.19,3.24,2.83l12.56-1.98c2.24-.35,3.47-1.7,3.58-3.91l1.83-29.44,8.79,28.28c.64,1.99,1.56,2.58,4.01,2.19l12.45-1.97c2.24-.35,3.47-1.7,3.58-3.91l3.47-67.83c.11-2.21-1-3.19-3.23-2.83Z" fill="url(#o)"/></g><g><path d="M112.87,132.17c-.93-.65-1.61-.99-1.61-.99,.57,.34,1.1,.67,1.61,.99Z" fill="#fff"/><path d="M101.87,190.65c.11-2.21-1-3.19-3.23-2.83l-12.78,2.02c-2.24,.35-3.47,1.7-3.58,3.91l-3.47,67.83c-.11,2.21,1,3.19,3.23,2.83l.45-.07,3.41-66.65c.11-2.21,1.34-3.55,3.58-3.91l12.33-1.95,.06-1.18Z" fill="#fff"/><path d="M154.68,229.45c.2,.62,.25,1.25,.21,1.92-.18,3.48-2.91,5.37-7.92,6.16-3.51,.55-6.68,.53-9,.48-2.53-.02-4.17,.97-4.29,3.29l-.52,10.22c-.13,2.63,.68,3.24,2.88,3.62,.22,.04,.49,.07,.76,.09l.51-9.99c.12-2.32,1.75-3.31,4.29-3.29,2.32,.05,5.49,.07,9-.48,5.01-.79,7.74-2.68,7.92-6.16,.11-2.08-.61-3.73-3.83-5.87Z" fill="#fff"/><path d="M250.45,48.7c.08-3.02-1.51-4.35-4.64-3.85l-18.35,2.9c-3.21,.51-4.98,2.44-5.14,5.62l-4.99,97.43c-.14,2.82,1.1,4.23,3.62,4.16,0-.08,0-.14,0-.22l4.99-97.43c.16-3.18,1.93-5.11,5.14-5.62l18.35-2.9c.36-.06,.7-.08,1.02-.09Z" fill="#fff"/><path d="M99.68,233.83l8.6,23.29c.52,1.53,1.43,2.43,3.11,2.51l-11.48-30.2-.23,4.4Z" fill="#fff"/><path d="M206.35,170.8l-18.73,2.96c-2.24,.35-3.47,1.7-3.58,3.91l-3.48,67.83c-.11,2.21,1,3.19,3.23,2.83l.45-.07,3.41-66.65c.11-2.21,1.34-3.55,3.58-3.91l18.73-2.96c8.24-1.3,11.33-1.73,17.72,1.41-3.21-5.82-9.79-7.18-21.34-5.35Z" fill="#fff"/><path d="M213.83,196.57c0-4.85-2.85-7.74-6.31-8.06,1.98,.41,2.51,2.8,2.66,4.12,.1,1.24,.08,2.79-.02,4.73-.25,4.97-.77,7.58-2.39,9.03,0,0,0,0,0,0-.16,.14-.35,.25-.53,.37-.19,.12-.41,.26-.65,.38-.26,.13-.53,.26-.83,.36-1.16,.39-3.86,.77-3.86,.77l-.21,4.13c2.5,0,5.21-.85,7.38-1.59,1.17-.34,2.04-.83,2.7-1.57l.04-.04c1.33-1.52,1.74-3.34,1.97-7.91,.09-1.78,.11-3.22,.04-4.4,0-.11,.01-.22,.01-.33Z" fill="#fff"/><path d="M171.84,176.77c-2.51-.44-7.59-.26-12.49,.51-16.39,2.59-23.33,10.16-24.07,24.7-.48,9.44,2.35,14.58,6.62,18.03-2.13-3.26-3.33-7.68-3-14.08,.74-14.53,7.68-22.11,24.07-24.7,4.46-.7,9.04-.91,11.73-.61v-.23c.15-2.63-.67-3.24-2.86-3.62Z" fill="#fff"/><path d="M158.57,164.81c0-.07,0-.14,0-.22l4.99-97.43c.16-3.18,1.93-5.11,5.14-5.62l18.35-2.9c.36-.06,.7-.08,1.02-.09,.07-3.01-1.51-4.35-4.64-3.85l-18.35,2.9c-3.21,.51-4.98,2.44-5.14,5.62l-4.99,97.43c-.14,2.82,1.1,4.23,3.62,4.16Z" fill="#fff"/><path d="M98.55,123.32c-3.5-4.77-5.53-11.36-5.02-21.24,1.07-20.88,11.03-31.76,34.57-35.48,7.03-1.11,14.33-1.36,17.93-.73,.19,.03,.34,.07,.52,.11-.1-2.81-1.33-3.56-4.14-4.05-3.61-.63-10.9-.38-17.93,.73-23.54,3.72-33.51,14.6-34.57,35.48-.66,12.92,2.99,20.23,8.64,25.18Z" fill="#fff"/><path d="M260.4,148.73c0-.07,0-.14,0-.22l4.99-97.44c.16-3.18,1.93-5.11,5.14-5.61l18.35-2.9c.36-.06,.7-.08,1.02-.09,.07-3.01-1.51-4.35-4.64-3.85l-18.35,2.9c-3.21,.51-4.98,2.44-5.14,5.61l-4.99,97.44c-.14,2.82,1.1,4.23,3.62,4.16Z" fill="#fff"/><path d="M183.89,140.11l23.74-3.68c.36-.06,.7-.08,1.02-.09,.08-3.01-1.51-4.35-4.64-3.85l-19.89,3.07-.23,4.55Z" fill="#fff"/><path d="M287.68,86.07l18.86-41.79c1.22-3.05,3.14-5,6.8-5.58l18.81-2.97c.05,0,.09,0,.14,0,.42-2.5-.7-4.42-3.76-3.94l-18.81,2.97c-3.67,.58-5.59,2.53-6.81,5.58l-14.59,33.07-.65,12.67Z" fill="#fff"/><path d="M71.81,192.05l-33.43,5.28c-2.24,.35-3.47,1.7-3.58,3.91l-3.48,67.83c-.11,2.21,1,3.19,3.24,2.83l.45-.07,3.41-66.65c.11-2.21,1.34-3.56,3.58-3.91l32.98-5.21,.06-1.18c.11-2.21-1-3.19-3.23-2.83Z" fill="#fff"/><path d="M90.48,174.4c-.01-.35-.02-.72,0-1.15l.75-14.68c.17-3.33,2.52-4.75,6.16-4.72,3.33,.07,7.88,.11,12.93-.69,6.32-1,10.11-3.22,11.12-7.14,.16-.5,.26-1.07,.26-1.71,.04-.82-.02-1.59-.2-2.34-.63-3.41-2.9-6.17-8.62-9.8,2.01,1.41,5.21,4.25,5.21,8.2-.26,4.99-4.19,7.71-11.37,8.85-5.04,.8-9.59,.77-12.93,.69-3.64-.03-5.98,1.4-6.16,4.72l-.75,14.68c-.18,3.56,.86,4.53,3.61,5.09Z" fill="#fff"/><path d="M72.33,223c.11-2.21-1-3.19-3.23-2.83l-15.94,2.52-.23,4.55,19.34-3.06,.06-1.18Z" fill="#fff"/><path d="M69.32,248.86l-17.67,2.77-.23,4.55,21.08-3.31,.06-1.18c.11-2.21-1-3.19-3.24-2.83Z" fill="#fff"/><path d="M128.76,183.06l-13.09,2.07c-2.56,.4-3.89,1.76-4.74,3.88l-10.15,23.02-.67,9.32,13.18-29.36c.85-2.12,2.18-3.48,4.74-3.88l13.35-2.15c.37-1.82-.41-3.25-2.61-2.9Z" fill="#fff"/><path d="M470,160.19c.11-2.21-1-3.19-3.24-2.83l-15.96,2.52-.23,4.55,19.37-3.06,.06-1.18Z" fill="#fff"/><path d="M466.99,186.05l-17.67,2.79-.23,4.55,21.08-3.33,.06-1.18c.11-2.21-1-3.19-3.23-2.83Z" fill="#fff"/><path d="M254.96,215.36l7.23,17.66c.66,1.62,1.39,2.32,3.01,2.34l-10.05-23.65-.19,3.66Z" fill="#fff"/><path d="M526.74,120.19l-12.56,1.98c-2.24,.35-3.47,1.7-3.58,3.91l-1.51,29.36,3.01,9.68,2.12-35.1c.11-2.21,1.34-3.56,3.58-3.91l12.11-1.91,.06-1.18c.11-2.21-1-3.18-3.23-2.83Z" fill="#fff"/><path d="M469.48,129.24l-33.43,5.28c-2.24,.35-3.47,1.7-3.58,3.91l-3.48,67.83c-.11,2.21,1,3.18,3.23,2.83l.45-.07,3.41-66.65c.11-2.21,1.34-3.56,3.58-3.91l32.98-5.21,.06-1.18c.11-2.21-1-3.18-3.23-2.83Z" fill="#fff"/><path d="M497.66,166.19l8.8,28.36c.55,1.72,1.32,2.39,3.11,2.29l-11.62-36.33-.29,5.68Z" fill="#fff"/><path d="M500.5,128.9l-.52-1.66c-.64-1.99-1.56-2.57-4.01-2.19l-12.45,1.97c-2.24,.35-3.47,1.7-3.58,3.91l-3.47,67.83c-.11,2.21,1,3.19,3.24,2.83l.45-.07,3.41-66.65c.11-2.21,1.34-3.55,3.58-3.91l12.45-1.97c.33-.05,.62-.08,.9-.1Z" fill="#fff"/><path d="M420.27,137.53c-2.51-.44-7.59-.26-12.48,.51-16.39,2.59-23.33,10.16-24.07,24.7-.48,9.44,2.34,14.58,6.62,18.03-2.13-3.26-3.33-7.68-3-14.08,.75-14.53,7.68-22.11,24.07-24.7,4.46-.7,9.04-.91,11.73-.61v-.23c.15-2.63-.67-3.24-2.86-3.62Z" fill="#fff"/><path d="M260.42,162.26l-18.95,2.99c-2.24,.35-3.47,1.7-3.58,3.91l-3.47,67.83c-.11,2.21,1,3.18,3.23,2.83l.45-.07,3.41-66.65c.11-2.21,1.34-3.56,3.58-3.91l18.95-2.99c8.4-1.33,14.23-.95,18.04,1.49-3.22-5.8-9.91-7.29-21.66-5.43Z" fill="#fff"/><path d="M326.91,208.18l-17.65,2.7-.23,4.55,21.06-3.24,.06-1.18c.11-2.21-1-3.19-3.23-2.83Z" fill="#fff"/><path d="M303.59,141.85l-16.68-43-.2,6.02,12.4,33.31c.63,1.86,1.92,3.67,4.48,3.67Z" fill="#fff"/><path d="M261.85,180.07s2.55,1.11,2.55,8.15c0,5.88-1.33,9.78-8.53,9.92l-.24,3.95,4.35-.66c5.11-.81,7.77-4.2,8.12-11.04,.29-5.74-1.99-10.32-6.26-10.32Z" fill="#fff"/><path d="M329.92,182.31c.11-2.21-1-3.18-3.23-2.83l-15.95,2.48-.23,4.55,19.36-3.02,.06-1.18Z" fill="#fff"/><path d="M374.29,144.8c-2.51-.44-7.59-.26-12.49,.51-16.39,2.59-23.33,10.16-24.07,24.7-.48,9.44,2.34,14.58,6.62,18.03-2.13-3.26-3.33-7.68-3-14.08,.74-14.53,7.68-22.11,24.07-24.7,4.46-.7,9.04-.91,11.73-.61v-.23c.15-2.63-.67-3.24-2.86-3.62Z" fill="#fff"/><path d="M329.4,151.36l-33.43,5.28c-2.24,.35-3.47,1.7-3.58,3.91l-3.47,67.83c-.11,2.21,1,3.19,3.23,2.83l.45-.07,3.41-66.65c.11-2.21,1.34-3.55,3.58-3.91l32.98-5.21,.06-1.18c.11-2.21-1-3.18-3.23-2.83Z" fill="#fff"/><path d="M398.18,185.45s4.04,2.16,5.01,5.12c.12,.5,.17,1.02,.14,1.57-.18,3.48-2.91,5.37-7.92,6.16-3.51,.55-6.68,.53-9,.48-2.53-.02-4.17,.97-4.29,3.29l-.52,10.22c-.13,2.63,.68,3.24,2.88,3.62,.22,.04,.49,.07,.76,.09l.51-9.99c.12-2.32,1.75-3.31,4.29-3.29,2.32,.05,5.49,.07,9-.48,4.5-.71,7.14-2.32,7.77-5.17,.07-.27,.12-.59,.14-.95,0-.02,0-.03,0-.05,0-.03,0-.06,0-.09,0-.15,.02-.29,.02-.46,0-4.14-2.98-7.2-8.79-10.07Z" fill="#fff"/><path d="M352.22,192.73c.56,.31,4.69,2.72,5.11,5.83,.02,.27,.03,.55,.02,.84-.18,3.48-2.91,5.37-7.92,6.16-3.51,.55-6.68,.53-9,.48-2.53-.02-4.17,.97-4.29,3.29l-.52,10.22c-.14,2.63,.68,3.24,2.88,3.62,.22,.04,.49,.07,.76,.09l.51-9.99c.12-2.32,1.75-3.31,4.29-3.29,2.32,.05,5.49,.07,9-.48,5-.79,7.74-2.68,7.92-6.16,.03-.53,0-1.04-.11-1.53-.44-3.62-3.39-6.35-8.63-9.08Z" fill="#fff"/></g></svg>