<?xml version="1.0" encoding="UTF-8"?><svg id="b" xmlns="http://www.w3.org/2000/svg" width="128" height="128" viewBox="0 0 128 128"><rect y=".43" width="128" height="128" fill="none"/><path d="m111.31,26.83c0,6.78-4.86,11.57-10.86,11.57s-10.86-4.78-10.86-11.57,10.86-22.96,10.86-22.96c0,0,10.86,16.18,10.86,22.96Z" fill="#a9d8d2"/><path d="m100.45,40.56c-7.42,0-13.02-5.9-13.02-13.72,0-7.23,10.08-22.45,11.23-24.16l1.79-2.67,1.79,2.67c1.15,1.71,11.23,16.93,11.23,24.16,0,7.82-5.6,13.72-13.02,13.72Zm0-32.71c-3.44,5.5-8.7,14.8-8.7,18.98,0,5.36,3.74,9.41,8.7,9.41s8.7-4.05,8.7-9.41c0-4.19-5.26-13.48-8.7-18.98Z" fill="#333"/><path d="m107.16,66.48c0,4.19-3.01,7.15-6.71,7.15s-6.71-2.96-6.71-7.15,6.71-14.19,6.71-14.19c0,0,6.71,10,6.71,14.19Z" fill="#a9d8d2"/><path d="m100.45,75.78c-5.06,0-8.87-4-8.87-9.31,0-4.62,5.9-13.64,7.08-15.4l1.79-2.67,1.79,2.67c1.18,1.76,7.08,10.78,7.08,15.4,0,5.31-3.81,9.31-8.87,9.31Zm0-19.48c-2.26,3.75-4.56,8.25-4.56,10.17,0,2.89,1.92,4.99,4.56,4.99s4.56-2.1,4.56-4.99c0-1.91-2.3-6.42-4.56-10.17Z" fill="#333"/><polygon points="62.4 32.58 65.26 42.89 75.56 45.75 65.26 48.61 62.4 58.92 59.54 48.61 49.23 45.75 59.54 42.89 62.4 32.58" fill="#f6a400"/><polygon points="38.64 5.71 42.47 19.53 56.29 23.36 42.47 27.19 38.64 41.01 34.81 27.19 20.99 23.36 34.81 19.53 38.64 5.71" fill="#f6a400"/><path d="m56.26,97.69h25.82c3.87,0,7.01-3.2,7.01-7.15h0c0-3.95-3.14-7.15-7.01-7.15h-13.98c-10.22,0-15.82-4.85-28.04-4.85h-19.58v25.54l27.7,10.38c13.64,4.38,28.28,4.31,41.87-.22l30.29-8.56c2.87-.96,4.81-3.69,4.81-6.77h0c0-3.93-3.12-7.12-6.97-7.12l-30,2.28" fill="#dbc7e2"/><path d="m68.82,120.4c-7.21,0-14.43-1.13-21.46-3.39l-29.58-11.08v-30.1h22.28c6.76,0,11.71,1.43,16.08,2.69,3.84,1.11,7.46,2.16,11.96,2.16h13.98c5.35,0,9.71,4.42,9.71,9.85,0,.19,0,.37-.01.55l26.4-2c5.33,0,9.67,4.4,9.67,9.81,0,4.25-2.67,8-6.66,9.32l-30.41,8.6c-7.15,2.38-14.55,3.58-21.97,3.58Zm-45.64-18.2l25.96,9.72c13.05,4.19,26.95,4.12,40.07-.25l30.41-8.6c1.66-.55,2.85-2.24,2.85-4.17,0-2.41-1.87-4.37-4.19-4.42l-28.58,2.17c-1.78,2.27-4.53,3.73-7.6,3.73h-25.82v-5.39h25.82c2.38,0,4.32-2,4.32-4.46s-1.94-4.46-4.32-4.46h-13.98c-5.27,0-9.43-1.2-13.46-2.37-4.22-1.22-8.58-2.48-14.58-2.48h-16.89v20.97Z" fill="#333"/><path d="m34.64,119.46H12.35c-6.82,0-12.35-5.35-12.35-11.94l1.68-19.73c.56-6.65,5.53-11.94,12.35-11.94h24.54l-3.94,43.61Z" fill="#c7dfb8"/><path d="m32.77,81.15l-2.98,33H12.35c-3.82,0-6.94-2.87-7.05-6.44l1.66-19.48c.29-3.41,2.62-7.08,7.07-7.08h18.73m5.8-5.3H14.04c-6.82,0-11.79,5.29-12.35,11.94L0,107.52C0,114.11,5.53,119.46,12.35,119.46h22.28l3.94-43.61h0Z" fill="#333"/><polygon points="21 114.23 29.77 114.23 32.56 81.14 23.82 81.14 21 114.23" fill="#fff"/></svg>