<?xml version="1.0" encoding="UTF-8"?><svg id="b" xmlns="http://www.w3.org/2000/svg" width="128" height="128" viewBox="0 0 128 128"><rect width="128" height="128" fill="none"/><polygon points="17.68 .56 21.45 14.15 35.04 17.91 21.45 21.68 17.68 35.27 13.91 21.68 .32 17.91 13.91 14.15 17.68 .56" fill="#f6a400"/><polygon points="36.76 24 38.95 31.89 46.83 34.07 38.95 36.26 36.76 44.14 34.58 36.26 26.69 34.07 34.58 31.89 36.76 24" fill="#f6a400"/><polygon points="117.93 107.86 120.12 115.75 128 117.93 120.12 120.12 117.93 128 115.75 120.12 107.86 117.93 115.75 115.75 117.93 107.86" fill="#f6a400"/><path d="m33.19,57.6h16.48v55.7h-16.48c-7.66,0-13.87-6.22-13.87-13.87v-27.95c0-7.66,6.22-13.87,13.87-13.87Z" fill="#fff"/><path d="m44.28,62.99v44.91h-11.09c-4.68,0-8.48-3.8-8.48-8.48v-27.95c0-4.68,3.8-8.48,8.48-8.48h11.09m5.39-5.39h-16.48c-7.66,0-13.87,6.21-13.87,13.87v27.95c0,7.66,6.21,13.87,13.87,13.87h16.48v-55.7h0Z" fill="#333"/><path d="m35.78,107.9h-2.52c-4.77,0-8.64-3.87-8.64-8.64v-27.63c0-4.77,3.87-8.64,8.64-8.64h2.52v44.9Z" fill="#c7dfb8"/><path d="m44.38,61.25l16.01-35.02c3.82-8.34,16.34-5.82,16.55,3.36,0,.12,0,.24,0,.36v19.45s.03.06.06.06h20.84c8.48,0,14.97,7.56,13.67,15.94l-5.58,36.17c-1.04,6.75-6.85,11.73-13.67,11.73h-47.89v-52.04Z" fill="#dbc7e2"/><path d="m73.37,30.32c0,.11,0,.21,0,.32v17.22s.02.05.05.05h3.64v-13.68c0-.11,0-.21,0-.32-.07-3.32-1.98-5.64-4.43-6.73.43.92.71,1.96.74,3.15Z" fill="#fff"/><path d="m68.2,26.56c.14,0,3.28.04,3.34,3.16v.24s0,19.45,0,19.45l.06,5.45h26.23c2.47,0,4.8,1.07,6.41,2.95s2.31,4.34,1.94,6.78l-5.58,36.17c-.64,4.15-4.15,7.15-8.34,7.15h-42.49v-45.47l15.53-33.95c.73-1.59,1.98-1.92,2.9-1.92m0-5.39c-3.1,0-6.21,1.59-7.81,5.07l-16.01,35.02v52.04h47.89c6.83,0,12.63-4.98,13.67-11.73l5.58-36.17c1.29-8.38-5.19-15.94-13.67-15.94h-20.84s-.06-.03-.06-.06v-19.45c0-.12,0-.24,0-.36-.12-5.34-4.42-8.43-8.74-8.43h0Z" fill="#333"/><path d="m107.82,61.03c-.05,2.4-1.57,4.53-3.84,5.34l-4.64,1.75,4.64,1.75c2.27.81,3.79,2.94,3.84,5.34v-14.19Z" fill="#333"/><path d="m106.14,75.23c-.05,2.4-1.57,4.53-3.84,5.34l-4.64,1.75,4.64,1.75c2.27.81,3.79,2.94,3.84,5.34v-14.19Z" fill="#333"/><path d="m103.58,90.9c-.05,2.4-1.57,4.53-3.84,5.34l-4.64,1.75,4.64,1.75c2.27.81,3.79,2.94,3.84,5.34v-14.19Z" fill="#333"/></svg>