<?xml version="1.0" encoding="UTF-8"?><svg id="b" xmlns="http://www.w3.org/2000/svg" width="128" height="128" viewBox="0 0 128 128"><path d="m92.55,5.86l-.11,14.94-2.59.96-9.81-11.28,12.51-4.62Zm.82,55.02l-7.04-19.04c-1.11-3-.98-6.26.35-9.17,1.34-2.91,3.73-5.12,6.73-6.23,1.34-.5,2.74-.75,4.15-.75,4.99,0,9.51,3.15,11.24,7.84l7.04,19.04c1.11,3,.98,6.26-.35,9.17-1.34,2.91-3.73,5.12-6.73,6.23-1.34.5-2.74.75-4.15.75-4.99,0-9.51-3.15-11.25-7.84Zm15.83,27.59l.11-14.94,2.59-.96,9.81,11.28-12.51,4.62Z" fill="#fff"/><path d="m23.49,19.01l7.58,21-4.26,3.65-19.62-10.68,16.3-13.96Zm25.05,71.59l-16.9-19.74c-2.93-3.42-4.35-7.77-4-12.25.35-4.48,2.42-8.57,5.84-11.49,3.05-2.61,6.94-4.05,10.94-4.05,4.93,0,9.6,2.15,12.8,5.89l16.9,19.74c6.04,7.05,5.21,17.7-1.84,23.74-3.05,2.61-6.94,4.05-10.94,4.05-4.93,0-9.6-2.15-12.8-5.89Zm33.75,30.01l-7.6-21.06,4.26-3.65,19.62,10.68-16.28,14.02Z" fill="#fff"/><rect width="128" height="128" fill="none"/><rect x="32.57" y="51.73" width="41.36" height="36.73" transform="translate(-32.79 51.49) rotate(-40.57)" fill="#a9d8d2"/><rect x="32.57" y="55.77" width="41.36" height="28.65" transform="translate(-32.79 51.49) rotate(-40.57)" fill="#c7dfb8"/><rect x="32.57" y="65.72" width="41.36" height="8.76" transform="translate(-32.79 51.49) rotate(-40.57)" fill="#a187bc"/><rect x="3.38" y="23.44" width="25.74" height="6.89" transform="translate(-13.58 17.03) rotate(-40.57)" fill="#c7dfb8"/><rect x="77.08" y="109.21" width="25.74" height="7.49" transform="translate(-51.84 85.66) rotate(-40.57)" fill="#c7dfb8"/><path d="m44.41,43.07h0c4.93,0,9.6,2.15,12.8,5.89l16.9,19.74c6.04,7.05,5.21,17.7-1.84,23.74-3.05,2.61-6.94,4.05-10.94,4.05-4.93,0-9.6-2.15-12.8-5.89l-16.9-19.74c-2.93-3.42-4.35-7.77-4-12.25.35-4.48,2.42-8.57,5.84-11.49,3.05-2.61,6.94-4.05,10.94-4.05m0-5.33c-5.1,0-10.23,1.75-14.41,5.33-9.3,7.96-10.38,21.95-2.42,31.25l16.9,19.74c4.38,5.12,10.6,7.75,16.85,7.75,5.1,0,10.23-1.75,14.41-5.33h0c9.3-7.96,10.38-21.95,2.42-31.25l-16.9-19.74c-4.38-5.12-10.6-7.75-16.85-7.75h0Z" fill="#333"/><path d="m23.49,19.01l7.58,21-4.26,3.65-19.62-10.68,16.3-13.96m0-5.36c-1.2,0-2.41.4-3.42,1.27L3.72,28.93c-2.81,2.4-2.34,6.87.9,8.64l22.86,12.52,9.84-8.43-8.85-24.52c-.8-2.22-2.86-3.49-4.98-3.49h0Z" fill="#333"/><path d="m31.25,47.19c-.75,0-1.5-.32-2.02-.93l-8.65-10.1c-.96-1.12-.83-2.8.29-3.76,1.12-.96,2.8-.83,3.75.29l8.65,10.1c.96,1.12.83,2.8-.29,3.76-.5.43-1.12.64-1.73.64Z" fill="#333"/><path d="m78.94,95.91l19.62,10.68-16.28,14.02-7.6-21.06,4.26-3.65m-.68-6.43l-9.84,8.43,8.85,24.52c.8,2.22,2.86,3.49,4.98,3.49,1.2,0,2.41-.4,3.42-1.27l16.35-14c2.81-2.4,2.34-6.87-.9-8.64l-22.86-12.52h0Z" fill="#333"/><path d="m83.14,107.79c-.75,0-1.5-.32-2.02-.93l-8.65-10.1c-.96-1.12-.83-2.8.29-3.76,1.12-.96,2.8-.82,3.75.29l8.65,10.1c.96,1.12.83,2.8-.29,3.76-.5.43-1.12.64-1.73.64Z" fill="#333"/><rect x="85.13" y="33.2" width="32.31" height="28.69" transform="translate(-10.2 38.06) rotate(-20.28)" fill="#a9d8d2"/><rect x="85.13" y="36.35" width="32.31" height="22.38" transform="translate(-10.2 38.06) rotate(-20.28)" fill="#c7dfb8"/><rect x="85.13" y="44.12" width="32.31" height="6.84" transform="translate(-10.2 38.06) rotate(-20.28)" fill="#a187bc"/><rect x="78.08" y="5.23" width="17.18" height="7.55" transform="translate(2.25 30.6) rotate(-20.28)" fill="#c7dfb8"/><rect x="106.18" y="79.94" width="17.69" height="9.77" transform="translate(-22.27 45.14) rotate(-20.28)" fill="#c7dfb8"/><path d="m97.57,25.69c4.99,0,9.51,3.15,11.24,7.84l7.04,19.04c1.11,3,.98,6.26-.35,9.17-1.34,2.91-3.73,5.12-6.73,6.23-1.34.5-2.74.75-4.15.75-4.99,0-9.51-3.15-11.25-7.84l-7.04-19.04c-1.11-3-.98-6.26.35-9.17,1.34-2.91,3.73-5.12,6.73-6.23,1.34-.5,2.74-.75,4.15-.75m0-5.33c-1.99,0-4.02.35-6,1.08h0c-8.97,3.31-13.55,13.27-10.24,22.24l7.04,19.04c2.58,6.99,9.2,11.32,16.24,11.32,1.99,0,4.02-.35,6-1.08,8.97-3.31,13.55-13.27,10.24-22.24l-7.04-19.04c-2.58-6.99-9.2-11.32-16.24-11.32h0Z" fill="#333"/><path d="m92.55,5.86l-.11,14.94-2.59.96-9.81-11.28,12.51-4.62M93.77,0c-.47,0-.96.08-1.44.26l-15.77,5.83c-2.71,1-3.58,4.4-1.68,6.58l13.36,15.36,9.49-3.51.16-20.36c.02-2.37-1.92-4.16-4.12-4.16h0Z" fill="#333"/><path d="m111.9,72.57l9.81,11.28-12.51,4.62.11-14.94,2.59-.96m1.6-6.27l-9.49,3.51-.16,20.36c-.02,2.37,1.92,4.16,4.12,4.16.47,0,.96-.08,1.44-.26l15.77-5.83c2.71-1,3.58-4.4,1.68-6.58l-13.36-15.36h0Z" fill="#333"/><polygon points="21.22 80.48 25.47 95.83 40.82 100.08 25.47 104.33 21.22 119.68 16.97 104.33 1.62 100.08 16.97 95.83 21.22 80.48" fill="#f6a400"/><polygon points="57.76 9.62 60.38 19.04 69.8 21.66 60.38 24.27 57.76 33.69 55.15 24.27 45.73 21.66 55.15 19.04 57.76 9.62" fill="#f6a400"/><polygon points="47.87 105.25 50.16 113.51 58.42 115.8 50.16 118.09 47.87 126.35 45.58 118.09 37.32 115.8 45.58 113.51 47.87 105.25" fill="#f6a400"/></svg>