<?xml version="1.0" encoding="UTF-8"?><svg id="b" xmlns="http://www.w3.org/2000/svg" width="128" height="128" viewBox="0 0 128 128"><rect width="128" height="128" fill="none"/><polygon points="17 0 20.69 13.31 34.01 17 20.69 20.69 17 34.01 13.31 20.69 0 17 13.31 13.31 17 0" fill="#f6a400"/><polygon points="97.22 112.63 109.26 109.29 112.59 97.26 115.93 109.29 127.97 112.63 115.93 115.97 112.59 128 109.26 115.97 97.22 112.63" fill="#f6a400"/><polygon points="110.17 89.54 117.15 87.6 119.08 80.62 121.02 87.6 128 89.54 121.02 91.47 119.08 98.45 117.15 91.47 110.17 89.54" fill="#f6a400"/><path d="m82.78,38.68l-2.56-15.97c-.53-3.61-3.72-6.29-7.49-6.29h-17.45c-3.77,0-6.96,2.68-7.49,6.29l-2.56,15.97" fill="#c7dfb8"/><path d="m45.22,41.38c-.14,0-.29-.01-.43-.04-1.47-.24-2.47-1.62-2.24-3.09l2.56-15.97c.71-4.86,5.08-8.55,10.15-8.55h17.45c5.07,0,9.44,3.69,10.16,8.59l2.56,15.94c.24,1.47-.77,2.85-2.24,3.09-1.46.23-2.85-.76-3.09-2.24l-2.56-15.97c-.34-2.3-2.41-4.02-4.83-4.02h-17.45c-2.42,0-4.49,1.71-4.82,3.98l-2.57,16.01c-.21,1.33-1.36,2.27-2.66,2.27Z" fill="#333"/><rect x="57.49" y="19.13" width="13.01" height="14.88" fill="#a187bc"/><path d="m45.22,89.32l2.56,15.97c.53,3.61,3.72,6.29,7.49,6.29h17.45c3.77,0,6.96-2.68,7.49-6.29l2.56-15.97" fill="#c7dfb8"/><path d="m72.73,114.27h-17.45c-5.07,0-9.44-3.69-10.16-8.59l-2.56-15.94c-.24-1.47.77-2.85,2.24-3.09,1.46-.22,2.85.76,3.09,2.24l2.56,15.97c.34,2.3,2.41,4.02,4.82,4.02h17.45c2.41,0,4.49-1.71,4.82-3.98l2.57-16.01c.24-1.47,1.63-2.48,3.09-2.24,1.47.24,2.47,1.62,2.24,3.09l-2.56,15.97c-.71,4.86-5.08,8.55-10.15,8.55Z" fill="#333"/><rect x="57.49" y="93.86" width="13.01" height="14.88" fill="#a187bc"/><circle cx="64" cy="64" r="33.24" fill="#fff"/><path d="m64,36.16c15.35,0,27.84,12.49,27.84,27.84s-12.49,27.84-27.84,27.84-27.84-12.49-27.84-27.84,12.49-27.84,27.84-27.84m0-5.39c-18.36,0-33.24,14.88-33.24,33.24s14.88,33.24,33.24,33.24,33.24-14.88,33.24-33.24-14.88-33.24-33.24-33.24h0Z" fill="#333"/><circle cx="64" cy="64" r="22.06" transform="translate(-20.11 30.57) rotate(-23.32)" fill="#dbc7e2"/><path d="m70.09,73.06c-.71,0-1.42-.28-1.95-.83l-6.09-6.37c-.48-.5-.75-1.17-.75-1.87v-15.93c0-1.49,1.21-2.7,2.7-2.7s2.7,1.21,2.7,2.7v14.85l5.34,5.58c1.03,1.08.99,2.78-.08,3.81-.52.5-1.19.75-1.87.75Z" fill="#333"/></svg>