<?xml version="1.0" encoding="UTF-8"?><svg id="b" xmlns="http://www.w3.org/2000/svg" width="128" height="128" viewBox="0 0 128 128"><polygon points="83.56 52.66 113.43 52.66 125.53 75.66 125.53 105.99 90.73 105.99 83.56 52.66" fill="#fff"/><rect y="0" width="128" height="128" fill="none"/><circle cx="41.83" cy="113.01" r="14.79" fill="#dbc7e2"/><path d="m41.83,103.61c5.18,0,9.4,4.22,9.4,9.4s-4.22,9.4-9.4,9.4-9.4-4.22-9.4-9.4,4.22-9.4,9.4-9.4m0-5.39c-8.17,0-14.79,6.62-14.79,14.79s6.62,14.79,14.79,14.79,14.79-6.62,14.79-14.79-6.62-14.79-14.79-14.79h0Z" fill="#333"/><circle cx="90.73" cy="113.01" r="14.79" fill="#dbc7e2"/><path d="m90.73,103.61c5.18,0,9.4,4.22,9.4,9.4s-4.22,9.4-9.4,9.4-9.4-4.22-9.4-9.4,4.22-9.4,9.4-9.4m0-5.39c-8.17,0-14.79,6.62-14.79,14.79s6.62,14.79,14.79,14.79,14.79-6.62,14.79-14.79-6.62-14.79-14.79-14.79h0Z" fill="#333"/><rect x="90.73" y="74.28" width="33.81" height="31.71" fill="#c7dfb8"/><rect x="113.43" y="74.28" width="11.11" height="31.71" fill="#a187bc"/><path d="m108.37,54.74c2.39,0,4.64,1.49,5.89,3.89l6.5,12.5c.65,1.26,1,2.7,1,4.16v27.93h-32.47v-48.48h19.08m0-5.64h-24.72v59.76h43.75v-33.57c0-2.37-.56-4.7-1.63-6.76l-6.49-12.5c-2.23-4.28-6.39-6.93-10.9-6.93h0Z" fill="#333"/><path d="m23.59,39.7h63.6c3.42,0,6.2,2.78,6.2,6.2v62.97H23.59c-3.42,0-6.2-2.78-6.2-6.2v-56.76c0-3.42,2.78-6.2,6.2-6.2Z" fill="#c7dfb8"/><path d="m87.2,44.79c.61,0,1.11.5,1.11,1.11v57.88H23.59c-.61,0-1.11-.5-1.11-1.11v-56.76c0-.61.5-1.11,1.11-1.11h63.6m0-5.09H23.59c-3.42,0-6.2,2.78-6.2,6.2v56.76c0,3.42,2.78,6.2,6.2,6.2h69.81v-62.97c0-3.42-2.78-6.2-6.2-6.2h0Z" fill="#333"/><polygon points="104.45 7.33 107.96 20 120.63 23.51 107.96 27.03 104.45 39.7 100.94 27.03 88.27 23.51 100.94 20 104.45 7.33" fill="#f6a400"/><polygon points="17.39 0 21.16 13.59 34.75 17.36 21.16 21.13 17.39 34.72 13.63 21.13 .03 17.36 13.63 13.59 17.39 0" fill="#f6a400"/><polygon points="43.47 14.62 45.66 22.5 53.54 24.69 45.66 26.87 43.47 34.76 41.29 26.87 33.4 24.69 41.29 22.5 43.47 14.62" fill="#f6a400"/><path d="m17.52,64c-.05,2.4-1.57,4.53-3.84,5.34l-7.7,1.75,7.7,1.75c2.27.81,3.79,2.94,3.84,5.34v-14.19Z" fill="#333"/><path d="m17.51,78.6c-.08,3.94-2.57,7.43-6.29,8.76l-10.84,2.88,10.84,2.88c3.72,1.33,6.21,4.82,6.29,8.76v-23.26Z" fill="#333"/><path d="m80.57,67.07c-.47-.42-1.09-.59-1.75-.48l-16.98,2.66.34-9.15-.02.03c0-.5-.14-.98-.45-1.37-.48-.59-1.24-.87-2.03-.74l-19.77,2.99c-3.1.49-4.75,2.22-4.9,5.16-.09,1.7.44,2.8,1.07,3.52-.75.36-1.24,1.07-1.29,1.95l-.07,1.42c0,.18,0,.35.02.51l-2.45.39h0l-.65.1c-1.09.17-1.85,1.03-1.89,2.13l-.23,6.58c-.02.66.22,1.25.69,1.67.38.34.86.51,1.38.51.12,0,47.54-7.51,47.54-7.51,1.09-.17,1.85-1.03,1.89-2.13l.23-6.58c.02-.66-.22-1.25-.69-1.67Z" fill="#a187bc"/></svg>